<?xml version="1.0" standalone="no"?>
<!DOCTYPE svg PUBLIC "-//W3C//DTD SVG 1.1//EN" "http://www.w3.org/Graphics/SVG/1.1/DTD/svg11.dtd" >
<svg xmlns="http://www.w3.org/2000/svg">
<metadata></metadata>
<defs>
<font id="fiore_bookregular" horiz-adv-x="1617" >
<font-face units-per-em="2048" ascent="1638" descent="-410" />
<missing-glyph horiz-adv-x="614" />
<glyph horiz-adv-x="0" />
<glyph unicode="&#xd;" horiz-adv-x="614" />
<glyph horiz-adv-x="0" />
<glyph horiz-adv-x="0" />
<glyph unicode=" "  horiz-adv-x="614" />
<glyph unicode="&#x09;" horiz-adv-x="614" />
<glyph unicode="&#xa0;" horiz-adv-x="614" />
<glyph unicode="!" horiz-adv-x="555" d="M143 -41v297h271v-297h-271zM145 1315v160h267v-160l-52 -950h-165z" />
<glyph unicode="&#x22;" horiz-adv-x="901" d="M88 836l70 639h268v-58l-176 -581h-162zM487 836l72 639h266v-58l-176 -581h-162z" />
<glyph unicode="#" horiz-adv-x="1433" d="M51 322v223h254l62 352h-236v223h272l62 355h227l-59 -355h305l61 355h228l-60 -355h213v-223h-252l-61 -352h233v-223h-270l-63 -363h-228l62 363h-305l-64 -363h-227l61 363h-215zM535 545h305l59 352h-305z" />
<glyph unicode="$" horiz-adv-x="1302" d="M59 209l142 190q102 -96 186 -144t176 -65v433q-217 55 -326.5 154.5t-109.5 275.5v4q0 86 33 157.5t90 126t136 88t171 44.5v120h213v-127q111 -16 203 -62t205 -130l-138 -191q-82 70 -147.5 105t-128.5 51v-420q223 -55 332.5 -156.5t109.5 -273.5v-4 q0 -90 -32.5 -162.5t-91 -127t-138.5 -88.5t-174 -44v-205h-213v209q-133 16 -251 74.5t-247 167.5zM367 1063q0 -29 7 -55.5t28.5 -51t59.5 -47t101 -41.5v383q-98 -14 -147 -66t-49 -118v-4zM764 182q100 16 151.5 68.5t51.5 124.5v4q0 33 -7.5 60.5t-29 51t-61.5 44 t-105 38.5v-391z" />
<glyph unicode="%" horiz-adv-x="1708" d="M66 1079v4q0 80 25.5 153t73.5 130t116.5 91t152.5 34q82 0 148.5 -34t114.5 -90t74 -129t26 -151v-4q0 -80 -26 -152.5t-74 -130t-115.5 -91t-151.5 -33.5t-151.5 33.5t-114.5 90t-72.5 129t-25.5 150.5zM174 -41l1112 1516h246l-1110 -1516h-248zM285 1083 q0 -98 47 -154.5t102 -56.5q59 0 102.5 55.5t43.5 151.5v4q0 49 -13.5 88t-35 67t-48 42t-53.5 14q-59 0 -102 -55t-43 -152v-4zM911 346v4q0 80 26 152.5t74 130t115.5 91.5t151.5 34t151.5 -34t114.5 -91.5t71.5 -130t24.5 -148.5v-4q0 -80 -25.5 -152.5t-73.5 -130 t-115.5 -91t-151.5 -33.5q-82 0 -148.5 33.5t-114.5 90t-74 129t-26 150.5zM1128 350q0 -98 47.5 -154.5t102.5 -56.5q59 0 102 55.5t43 151.5v4q0 98 -47 154.5t-102 56.5q-59 0 -102.5 -55t-43.5 -152v-4z" />
<glyph unicode="&#x26;" horiz-adv-x="1425" d="M51 381v4q0 147 85 253.5t237 176.5q-59 74 -89 143.5t-30 155.5v4q0 80 30.5 149.5t86 121t133.5 81t170 29.5q82 0 153.5 -28.5t124 -78t82 -116t29.5 -141.5v-5q0 -141 -82 -235t-223 -154l248 -252q39 59 75.5 132t81.5 178l207 -97q-55 -123 -103 -212t-104 -164 l258 -265l-188 -145l-221 227q-98 -98 -213 -151t-256 -53q-102 0 -192.5 31.5t-157 90t-104.5 139.5t-38 181zM297 387q0 -96 69.5 -162.5t188.5 -66.5q86 0 158.5 37.5t142.5 107.5l-336 346q-123 -51 -173 -118.5t-50 -139.5v-4zM492 1114q0 -25 5 -47.5t17 -48t34.5 -55 t57.5 -66.5q121 47 172 102.5t51 122.5v4q0 70 -45 114t-116 44q-82 0 -129 -47t-47 -119v-4z" />
<glyph unicode="'" horiz-adv-x="501" d="M88 836l70 639h270v-58l-176 -581h-164z" />
<glyph unicode="(" horiz-adv-x="888" d="M98 588q0 303 156 530.5t467 401.5l110 -172q-127 -80 -220 -165t-153.5 -178.5t-89 -196.5t-28.5 -220t28.5 -220.5t89 -196.5t154 -178t219.5 -165l-110 -172q-311 174 -467 401.5t-156 530.5z" />
<glyph unicode=")" horiz-adv-x="888" d="M57 -172q254 162 373 344t119 416q0 233 -119 415.5t-373 344.5l111 172q311 -174 467 -401.5t156 -530.5t-156 -530.5t-467 -401.5z" />
<glyph unicode="*" horiz-adv-x="880" d="M84 1034l197 90l-197 93l100 172l176 -123l-18 213h197l-19 -213l176 123l101 -172l-197 -93l197 -90l-101 -174l-176 125l19 -213h-197l18 213l-176 -125z" />
<glyph unicode="+" horiz-adv-x="1310" d="M113 606v230h426v421h233v-421h426v-230h-426v-422h-233v422h-426z" />
<glyph unicode="," horiz-adv-x="501" d="M43 -154q80 29 110.5 55.5t36.5 57.5h-73v297h270v-225q0 -141 -68.5 -217t-226.5 -111z" />
<glyph unicode="-" horiz-adv-x="835" d="M92 492v247h651v-247h-651z" />
<glyph unicode="." horiz-adv-x="501" d="M117 -41v297h270v-297h-270z" />
<glyph unicode="/" horiz-adv-x="1040" d="M-109 -303l992 1978h235l-991 -1978h-236z" />
<glyph unicode="0" horiz-adv-x="1464" d="M86 713v4q0 156 45 297t130 248.5t205 172t269 64.5q150 0 269.5 -63.5t202.5 -171t127 -247.5t44 -296v-4q0 -156 -45 -297t-129 -249t-203.5 -172.5t-269.5 -64.5q-152 0 -270.5 63.5t-202.5 171t-128 248t-44 296.5zM336 717q0 -115 29.5 -215.5t82 -175t126 -118.5 t161.5 -44t161 43t124 116.5t79.5 174t28.5 215.5v4q0 113 -29.5 214t-81.5 176t-125 119t-161 44t-160.5 -43t-125 -117t-81 -174t-28.5 -215v-4z" />
<glyph unicode="1" horiz-adv-x="733" d="M6 1350l395 135h166v-1526h-241v1262l-256 -80z" />
<glyph unicode="2" horiz-adv-x="1226" d="M57 -41v184l535 471q82 74 137 131.5t88 105.5t46.5 92t13.5 91q0 53 -19.5 96.5t-53.5 74t-79 47t-96 16.5q-53 0 -99.5 -14.5t-91.5 -45t-89 -81t-95 -121.5l-186 133q59 86 117.5 152.5t126 111.5t147.5 68.5t182 23.5q104 0 192.5 -32.5t154 -92t102 -141.5 t36.5 -180v-5q0 -84 -23.5 -155.5t-71.5 -140t-118.5 -139t-162.5 -152.5l-301 -269h692v-229h-1084z" />
<glyph unicode="3" horiz-adv-x="1255" d="M47 238l176 157q51 -61 99.5 -105t97.5 -72t103.5 -41t115.5 -13q119 0 195.5 65.5t76.5 171.5v5q0 106 -93 170.5t-267 64.5h-121l-51 147l409 459h-651v228h998v-177l-410 -452q86 -16 164 -48t137 -84t95 -127t36 -175v-4q0 -106 -41 -193.5t-111.5 -150t-166 -96.5 t-201.5 -34q-190 0 -334.5 78t-255.5 226z" />
<glyph unicode="4" horiz-adv-x="1374" d="M41 465l840 1020h200v-969h224v-217h-224v-340h-237v340h-744zM369 516h475v584z" />
<glyph unicode="5" horiz-adv-x="1253" d="M51 201l162 178q115 -113 212 -164t198 -51q70 0 126 21.5t96 58.5t61.5 87t21.5 109v4q0 115 -86 188t-230 73q-86 0 -155.5 -24t-147.5 -65l-149 99l45 760h905v-232h-686l-25 -354q51 20 107.5 30.5t130.5 10.5q111 0 208 -33t171 -94.5t116 -150.5t42 -201v-5 q0 -115 -42 -209t-116 -161.5t-175 -104.5t-220 -37q-166 0 -305.5 72t-264.5 195z" />
<glyph unicode="6" horiz-adv-x="1325" d="M84 676v4q0 168 42 316.5t123 260t199.5 177t272.5 65.5q70 0 130 -12t118.5 -37t115 -61.5t115.5 -88.5l-143 -190q-102 86 -179 123t-165 37q-150 0 -250.5 -125t-122.5 -346q61 59 149.5 99t210.5 40q106 0 203.5 -33t171.5 -95t118 -151.5t44 -201.5v-4 q0 -115 -44 -209t-119 -164t-176 -108t-216 -38q-127 0 -229.5 42t-176.5 116q-47 47 -82.5 101.5t-60 124t-37 157.5t-12.5 201zM362 440q0 -59 23 -109t65 -89t101 -60.5t133 -21.5q70 0 127 22.5t96 61.5t60.5 91t21.5 111v5q0 55 -21.5 103t-62.5 85t-98 57.5t-127 20.5 q-74 0 -132.5 -23.5t-99 -62.5t-63.5 -88t-23 -99v-4z" />
<glyph unicode="7" horiz-adv-x="1220" d="M98 1245v230h1055v-172l-668 -1344h-270l647 1286h-764z" />
<glyph unicode="8" horiz-adv-x="1290" d="M66 385v4q0 125 68.5 214t174.5 142q-82 51 -138 130t-56 196v4q0 94 45 172t118.5 133.5t169 85t197.5 29.5t197.5 -29.5t169 -85t119 -133.5t45.5 -172v-4q0 -117 -56.5 -195.5t-138.5 -130.5q104 -53 174 -141t70 -213v-4q0 -104 -46 -187t-125 -141.5t-184.5 -89 t-224.5 -30.5t-224.5 31.5t-184 90t-124.5 140.5t-46 184zM311 389q0 -43 20.5 -83t62.5 -72.5t104.5 -52t146.5 -19.5t146.5 19.5t104.5 52t62.5 72.5t20.5 83v4q0 45 -24.5 87t-68.5 75t-105.5 51.5t-135.5 18.5q-76 0 -137.5 -18.5t-105.5 -51.5t-67.5 -75t-23.5 -87v-4z M358 1061q0 -47 20.5 -87t58.5 -70t91.5 -47t116.5 -17t116.5 17t91.5 47t58.5 70t20.5 87v4q0 41 -20.5 78t-57.5 65.5t-90 46t-119 17.5q-133 0 -210 -61.5t-77 -145.5v-4z" />
<glyph unicode="9" horiz-adv-x="1325" d="M88 967v4q0 111 41 208t114.5 167.5t176 111.5t225.5 41q131 0 230.5 -42t175.5 -118q45 -45 79.5 -100t59 -126t38 -159t13.5 -198v-4q0 -176 -45 -326t-128 -258.5t-201 -171t-263 -62.5q-76 0 -141.5 14.5t-126 42t-116.5 66.5t-116 88l146 191q55 -49 101 -82 t88 -52.5t83 -28.5t86 -9q74 0 138.5 31.5t114.5 92t83 146.5t45 195q-66 -66 -153.5 -107t-206.5 -41q-117 0 -216.5 36t-172 100.5t-112.5 153.5t-40 196zM336 975q0 -59 21.5 -108.5t62.5 -86.5t98 -57.5t129 -20.5q74 0 133.5 25t99.5 64.5t61.5 90t21.5 103.5v4 q0 57 -22.5 109.5t-66 91.5t-102.5 61.5t-133 22.5q-72 0 -128 -23.5t-95 -64.5t-59.5 -94.5t-20.5 -112.5v-4z" />
<glyph unicode=":" horiz-adv-x="522" d="M127 -41v297h270v-297h-270zM127 803v297h270v-297h-270z" />
<glyph unicode=";" horiz-adv-x="522" d="M53 -154q80 29 111 55.5t37 57.5h-74v297h270v-225q0 -141 -68.5 -217t-226.5 -111zM127 803v297h270v-297h-270z" />
<glyph unicode="&#x3c;" horiz-adv-x="1310" d="M106 629v184l1043 518v-248l-737 -360l737 -363v-249z" />
<glyph unicode="=" horiz-adv-x="1310" d="M143 365v233h1024v-233h-1024zM143 844v233h1024v-233h-1024z" />
<glyph unicode="&#x3e;" horiz-adv-x="1310" d="M162 111v247l737 361l-737 362v250l1042 -518v-184z" />
<glyph unicode="?" horiz-adv-x="1099" d="M6 1210q111 135 236 209t301 74q111 0 203 -33t157.5 -92t102 -141t36.5 -180v-5q0 -102 -34.5 -179t-93 -132t-137.5 -90t-165 -49l-20 -227h-178l-37 389l37 34q104 2 177 21.5t119 53.5t66.5 78t20.5 95v4q0 92 -66.5 159t-191.5 67q-104 0 -189.5 -49.5 t-181.5 -161.5zM367 -41v297h270v-297h-270z" />
<glyph unicode="@" horiz-adv-x="2007" d="M68 561q0 193 72.5 363t199.5 298t298 202.5t368 74.5t366.5 -69.5t295.5 -186.5t198.5 -271.5t72.5 -324.5q0 -137 -35.5 -239.5t-95 -170t-136 -100.5t-156.5 -33q-102 0 -178 37t-119 105q-59 -59 -138.5 -100.5t-189.5 -41.5q-84 0 -159 30t-130 85t-87 131t-32 168 q0 117 45 217.5t117 175t164 116.5t188 42q94 0 162 -31.5t115 -79.5l16 86l217 -28l-88 -506q-8 -41 -11 -71.5t-3 -47.5q0 -125 133 -125q43 0 87 20.5t79 65.5t57.5 118t22.5 177q0 131 -58.5 257t-163 224.5t-246.5 159t-310 60.5t-311.5 -62.5t-248 -170t-164 -250 t-59.5 -304.5q0 -164 58.5 -306t165 -247.5t253 -167t322.5 -61.5q74 0 138.5 9t127 27.5t126 47t132.5 69.5l74 -125q-147 -92 -289.5 -136t-308.5 -44q-205 0 -380 74t-302 201t-199.5 297t-72.5 362zM713 528q0 -106 57 -160.5t152 -54.5q55 0 108 27t95 73t67 104 t25 124q0 98 -59.5 158.5t-149.5 60.5q-55 0 -108.5 -24.5t-94.5 -69.5t-66.5 -105.5t-25.5 -132.5z" />
<glyph unicode="A" d="M16 -41l691 1526h204l691 -1526h-265l-168 379h-727l-170 -379h-256zM543 565h526l-262 590z" />
<glyph unicode="B" horiz-adv-x="1478" d="M162 -41v1516h651q129 0 230.5 -34t173.5 -106q104 -104 104 -258v-4q0 -121 -50 -198.5t-118 -124.5q51 -23 96 -55.5t79 -76t53.5 -98.5t19.5 -125v-4q0 -104 -42 -185t-117 -135.5t-178 -83t-224 -28.5h-678zM403 186h441q160 0 235.5 58.5t75.5 156.5v5 q0 45 -18.5 81.5t-58.5 64.5t-105.5 43t-157.5 15h-412v-424zM403 836h383q141 0 215 55t74 160v4q0 82 -65.5 137t-210.5 55h-396v-411z" />
<glyph unicode="C" horiz-adv-x="1511" d="M98 713v4q0 160 57.5 302t159 248.5t242.5 169t307 62.5q102 0 186.5 -17.5t158 -51t140 -84t132.5 -113.5l-166 -178q-55 51 -107.5 91t-106.5 67.5t-112.5 41t-126.5 13.5q-111 0 -204 -42t-162.5 -116t-108.5 -173t-39 -216v-4q0 -117 39 -217.5t108.5 -175 t163 -116.5t203.5 -42q68 0 126.5 13.5t112.5 41t108.5 69.5t115.5 99l164 -162q-135 -141 -281.5 -217t-349.5 -76q-164 0 -303 60.5t-240.5 166t-159 248t-57.5 304.5z" />
<glyph unicode="D" horiz-adv-x="1601" d="M162 -41v1516h538q176 0 323.5 -57.5t254 -159t166 -239.5t59.5 -298v-4q0 -160 -59.5 -299t-166 -240.5t-254 -160t-323.5 -58.5h-538zM406 190h294q127 0 229.5 40t174.5 110t110.5 166t38.5 207v4q0 111 -38.5 207t-110.5 166.5t-174.5 111.5t-229.5 41h-294v-1053z " />
<glyph unicode="E" horiz-adv-x="1372" d="M162 -41v1516h1118v-230h-874v-407h782v-230h-782v-420h884v-229h-1128z" />
<glyph unicode="F" horiz-adv-x="1343" d="M162 -41v1516h1112v-232h-868v-430h776v-229h-776v-625h-244z" />
<glyph unicode="G" horiz-adv-x="1605" d="M98 713v4q0 156 54.5 297t155 248.5t240.5 172t310 64.5q94 0 173 -14.5t149.5 -42t136 -70.5t133.5 -100l-158 -187q-49 45 -98 79t-101.5 56.5t-110.5 35t-130 12.5q-109 0 -201 -43t-159.5 -118t-105.5 -174t-38 -212v-4q0 -121 37 -222.5t105.5 -175t166 -115.5 t217.5 -42q111 0 207.5 34.5t165.5 88.5v295h-436v227h674v-631q-117 -106 -270.5 -174t-346.5 -68q-178 0 -320 61.5t-242.5 167t-154 247t-53.5 303.5z" />
<glyph unicode="H" horiz-adv-x="1556" d="M162 -41v1516h244v-637h745v637h244v-1516h-244v645h-745v-645h-244z" />
<glyph unicode="I" horiz-adv-x="595" d="M176 -41v1516h244v-1516h-244z" />
<glyph unicode="J" horiz-adv-x="1132" d="M10 242l178 153q41 -61 78 -104t74 -69.5t78 -39t90 -12.5q100 0 170 72.5t70 230.5v1002h245v-1000q0 -135 -36.5 -235t-106.5 -170q-66 -68 -153 -99.5t-191 -31.5q-174 0 -292 80.5t-204 222.5z" />
<glyph unicode="K" horiz-adv-x="1472" d="M162 -41v1516h244v-795l763 795h326l-657 -670l669 -846h-307l-534 674l-260 -264v-410h-244z" />
<glyph unicode="L" horiz-adv-x="1267" d="M162 -41v1516h244v-1285h806v-231h-1050z" />
<glyph unicode="M" horiz-adv-x="1777" d="M162 -41v1516h227l500 -750l500 750h227v-1516h-244v1069l-459 -676h-53l-459 674v-1067h-239z" />
<glyph unicode="N" d="M162 -41v1516h213l842 -1072v1072h239v-1516h-190l-865 1098v-1098h-239z" />
<glyph unicode="O" horiz-adv-x="1740" d="M98 713v4q0 156 56.5 298t158 249.5t244.5 171t315 63.5t312.5 -62.5t242 -168t157.5 -244.5t58 -293q0 -4 1.5 -6t1.5 -6t-1.5 -6t-1.5 -6q-2 -154 -58 -294.5t-158.5 -247t-244 -169t-313.5 -62.5t-314 63.5t-243.5 170t-157 248t-55.5 297.5zM348 717 q0 -115 39 -215.5t109.5 -175t166 -117.5t209.5 -43q113 0 209.5 43t165 116.5t107.5 173t39 214.5v4q0 115 -39 215t-109.5 175t-167 118t-209.5 43q-115 0 -210 -43t-163.5 -117t-107.5 -173t-39 -214v-4z" />
<glyph unicode="P" horiz-adv-x="1368" d="M162 -41v1516h577q127 0 233.5 -34t183.5 -97.5t119 -155.5t42 -209v-4q0 -129 -50 -224.5t-133 -159t-192.5 -95t-228.5 -31.5h-307v-506h-244zM406 694h313q168 0 260 78t92 197v4q0 131 -89 200.5t-255 69.5h-321v-549z" />
<glyph unicode="Q" horiz-adv-x="1740" d="M98 713v4q0 156 56.5 298t158 249.5t244.5 171t315 63.5t312.5 -62.5t242 -168t157.5 -244.5t58 -293q0 -4 1.5 -6t1.5 -6q0 -6 -3 -12q-2 -129 -39.5 -248t-115.5 -217l192 -160l-168 -182l-192 176q-94 -66 -206 -104t-245 -38q-172 0 -314 63.5t-243.5 170t-157 248 t-55.5 297.5zM348 717q0 -115 39 -215.5t109.5 -175t166 -117.5t209.5 -43q78 0 142.5 18.5t120.5 53.5l-258 219l165 182l261 -236q43 66 66.5 144t23.5 166v4q0 115 -39 215t-109.5 175t-167 118t-209.5 43q-115 0 -210 -43t-163.5 -117t-107.5 -173t-39 -214v-4z" />
<glyph unicode="R" horiz-adv-x="1480" d="M162 -41v1516h657q141 0 252 -40t184 -116q123 -123 123 -311v-4q0 -90 -26.5 -163t-74.5 -128.5t-113.5 -94t-143.5 -59.5l450 -600h-301l-415 557h-348v-557h-244zM406 743h399q152 0 240 69t88 185v4q0 111 -80 176.5t-246 65.5h-401v-500z" />
<glyph unicode="S" horiz-adv-x="1310" d="M51 205l154 182q66 -61 125 -103t118.5 -68t121 -38t130.5 -12q139 0 209 59.5t70 143.5v4q0 37 -11.5 69.5t-47 60t-102 52.5t-179.5 49q-125 27 -221 65t-160.5 91t-98.5 125.5t-34 173.5v4q0 94 40 174t108.5 137.5t161.5 89t202 31.5q82 0 154.5 -12.5t139 -38 t132 -64.5t135.5 -94l-145 -192q-119 98 -217.5 136t-202.5 38q-133 0 -198.5 -57.5t-65.5 -133.5v-4q0 -39 11 -70.5t48 -60.5t107.5 -55.5t189.5 -50.5q244 -53 372 -157t128 -290v-4q0 -104 -41 -186t-113 -140.5t-168 -89t-209 -30.5q-182 0 -333.5 62t-309.5 204z" />
<glyph unicode="T" horiz-adv-x="1327" d="M59 1243v232h1209v-232h-482v-1284h-245v1284h-482z" />
<glyph unicode="U" horiz-adv-x="1554" d="M139 600v875h244v-865q0 -223 103.5 -332.5t293.5 -109.5q180 0 285.5 105.5t105.5 326.5v875h244v-863q0 -166 -46 -291.5t-130 -211.5t-202 -129t-261 -43q-141 0 -258 43t-202 128t-131 208.5t-46 283.5z" />
<glyph unicode="V" horiz-adv-x="1536" d="M18 1475h269l483 -1170l485 1170h263l-652 -1526h-196z" />
<glyph unicode="W" horiz-adv-x="2267" d="M35 1475h262l381 -1106l364 1110h191l364 -1110l381 1106h256l-540 -1526h-195l-364 1077l-367 -1077h-193z" />
<glyph unicode="X" horiz-adv-x="1484" d="M12 -41l582 772l-561 744h293l419 -560l416 560h291l-561 -742l582 -774h-295l-439 590l-438 -590h-289z" />
<glyph unicode="Y" horiz-adv-x="1466" d="M-23 1475h297l461 -684l465 684h289l-633 -918v-598h-246v596z" />
<glyph unicode="Z" horiz-adv-x="1419" d="M96 -41v164l885 1124h-854v228h1200v-164l-887 -1125h887v-227h-1231z" />
<glyph unicode="[" horiz-adv-x="899" d="M152 -307v1782h667v-205h-436v-1372h436v-205h-667z" />
<glyph unicode="\" horiz-adv-x="1040" d="M-78 1675h236l991 -1978h-236z" />
<glyph unicode="]" horiz-adv-x="899" d="M80 -102h438v1372h-438v205h668v-1782h-668v205z" />
<glyph unicode="^" horiz-adv-x="1024" d="M51 969l379 510h164l379 -510h-242l-221 288l-221 -288h-238z" />
<glyph unicode="_" horiz-adv-x="1228" d="M-45 -158h1319v-211h-1319v211z" />
<glyph unicode="`" horiz-adv-x="1024" d="M223 1452l250 115l256 -389h-219z" />
<glyph unicode="a" horiz-adv-x="1185" d="M55 307v4q0 98 38 171t104.5 121t156.5 71.5t195 23.5q88 0 154.5 -8t127.5 -24q-12 225 -272 225q-88 0 -165 -21.5t-179 -70.5l-76 207q115 55 214.5 82.5t221.5 27.5q117 0 211.5 -31.5t159.5 -97.5q123 -123 123 -340v-688h-238v96q-59 -53 -143 -85.5t-196 -32.5 q-78 0 -156 22.5t-140.5 68.5t-101.5 115.5t-39 163.5zM297 315q0 -76 63.5 -123t161.5 -47q68 0 125.5 18.5t99 51.5t64.5 77t23 97v68q-53 14 -119 24.5t-150 10.5q-141 0 -204.5 -50.5t-63.5 -122.5v-4z" />
<glyph unicode="b" horiz-adv-x="1359" d="M135 -41v1577h240v-575q66 70 153.5 115.5t210.5 45.5q104 0 202.5 -40t175.5 -115.5t123 -185t46 -249.5v-4q0 -137 -46 -246.5t-123 -186.5t-175.5 -117.5t-202.5 -40.5q-121 0 -210 43t-154 108v-129h-240zM369 528q0 -84 28.5 -151.5t76.5 -115.5t109.5 -74.5 t127.5 -26.5q68 0 128 24.5t105 70.5t71.5 114.5t26.5 156.5v4q0 86 -26.5 155t-72.5 117t-105.5 72.5t-126.5 24.5q-66 0 -127.5 -26.5t-109.5 -74.5t-76.5 -116t-28.5 -150v-4z" />
<glyph unicode="c" horiz-adv-x="1169" d="M70 524v4q0 121 44 228.5t121.5 189.5t184 129t233.5 47q80 0 146.5 -16t124 -46t108.5 -73t101 -94l-160 -170q-41 43 -79 77t-76 56.5t-78 33.5t-89 11q-72 0 -133 -27.5t-106 -76.5t-72 -117t-27 -148v-4q0 -78 27 -145.5t74 -117.5t110.5 -78.5t137.5 -28.5 q92 0 165.5 44t155.5 130l160 -150q-104 -119 -217 -183.5t-273 -64.5q-127 0 -233.5 47.5t-184 128t-121.5 188.5t-44 226z" />
<glyph unicode="d" horiz-adv-x="1359" d="M74 526v4q0 137 46 247t122.5 186.5t175 117.5t203.5 41q121 0 210 -43t154 -108v565h240v-1577h-240v137q-66 -68 -154 -113.5t-210 -45.5q-104 0 -203 39.5t-175.5 115.5t-122.5 185.5t-46 248.5zM317 528q0 -86 27 -154.5t73 -116.5t105.5 -72.5t126.5 -24.5 q66 0 127.5 26.5t109.5 74.5t76.5 115.5t28.5 151.5v4q0 82 -28.5 151t-76.5 116t-109.5 73.5t-127.5 26.5q-68 0 -128 -24.5t-105 -70.5t-72 -114.5t-27 -157.5v-4z" />
<glyph unicode="e" horiz-adv-x="1212" d="M70 528q0 123 41 230.5t113.5 188.5t173 128t220.5 47q129 0 228.5 -48t167 -131t103.5 -191.5t36 -231.5q0 -10 -1 -29.5t-5 -66.5h-830q29 -131 119 -200.5t207 -69.5q100 0 174 41t158 124l158 -141q-104 -121 -218 -182.5t-276 -61.5q-117 0 -220.5 43t-181 122 t-122.5 187.5t-45 241.5zM317 633h588q-20 117 -94 195.5t-197 78.5q-106 0 -188 -74.5t-109 -199.5z" />
<glyph unicode="f" horiz-adv-x="751" d="M49 879v219h146v51q0 96 25.5 172t78.5 129q49 49 113.5 71.5t142.5 22.5q59 0 105.5 -8t109.5 -31v-221q-41 12 -69.5 20.5t-50 12.5t-39.5 6t-36 2q-70 0 -106.5 -41t-36.5 -143v-45h336v-217h-334v-920h-239v920h-146z" />
<glyph unicode="g" horiz-adv-x="1359" d="M74 578v4q0 125 45 225t120.5 170t173 107.5t199.5 37.5q123 0 214.5 -42t158.5 -105v125h240v-916q-1 -260 -148 -403q-80 -80 -188.5 -117t-243.5 -37q-141 0 -271 41t-265 135l114 195q115 -84 213.5 -119t206.5 -35q164 0 254 84t90 252v17q-70 -68 -161 -112 t-214 -44q-102 0 -199.5 38t-173 107.5t-120.5 169t-45 222.5zM317 582q0 -72 26 -130.5t71 -100.5t104.5 -65.5t124.5 -23.5q70 0 132.5 23.5t110.5 65.5t76.5 100.5t28.5 128.5v4q0 70 -28.5 129t-76.5 100t-110.5 64.5t-132.5 23.5q-68 0 -127 -22.5t-103 -63.5 t-70 -99.5t-26 -129.5v-4z" />
<glyph unicode="h" horiz-adv-x="1261" d="M135 -41v1577h240v-543q57 57 135 93t186 36q104 0 187.5 -34.5t140.5 -96t88 -146.5t31 -188v-698h-240v659q0 135 -64.5 207t-187.5 72q-119 0 -197.5 -79t-78.5 -212v-647h-240z" />
<glyph unicode="i" horiz-adv-x="538" d="M139 1249v256h262v-256h-262zM150 -41v1141h239v-1141h-239z" />
<glyph unicode="j" horiz-adv-x="538" d="M-49 -141q53 -14 77.5 -16.5t41.5 -2.5q35 0 57.5 20.5t22.5 80.5v1159h239v-1161q0 -160 -79 -237t-220 -77q-31 0 -58.5 3t-80.5 16v215zM139 1249v256h262v-256h-262z" />
<glyph unicode="k" horiz-adv-x="1165" d="M135 -41v1577h240v-971l512 535h313l-489 -500l487 -641h-291l-362 473l-170 -172v-301h-240z" />
<glyph unicode="l" horiz-adv-x="538" d="M150 -41v1577h239v-1577h-239z" />
<glyph unicode="m" horiz-adv-x="1947" d="M135 -41v1141h240v-103q53 53 124.5 89t176.5 36q121 0 206 -49t138 -127q59 76 148 126t221 50q102 0 183 -32.5t136 -94t85 -147.5t30 -193v-696h-240v659q0 141 -62.5 210t-170.5 69q-49 0 -95.5 -18.5t-81 -54.5t-55 -90t-20.5 -124v-651h-238v664q0 137 -61.5 205.5 t-169.5 68.5q-53 0 -99.5 -21.5t-81 -59.5t-54 -92t-19.5 -120v-645h-240z" />
<glyph unicode="n" horiz-adv-x="1261" d="M135 -41v1141h240v-107q57 57 135 93t186 36q104 0 187.5 -34.5t140.5 -96t88 -146.5t31 -188v-698h-240v659q0 135 -64.5 207t-187.5 72q-119 0 -197.5 -79t-78.5 -212v-647h-240z" />
<glyph unicode="o" horiz-adv-x="1323" d="M70 524v4q0 121 44 229.5t122.5 189.5t188.5 128t239 47t237.5 -47t187 -127t122.5 -187.5t44 -228.5v-4q0 -121 -45 -229.5t-124.5 -189t-188.5 -128t-238 -47.5q-127 0 -235.5 47.5t-187 127t-122.5 187t-44 228.5zM313 528q0 -78 27 -145.5t74 -117.5t111.5 -78.5 t138.5 -28.5q76 0 140 28.5t110.5 78.5t72 117t25.5 142v4q0 78 -27 145.5t-75 119t-112.5 80t-138.5 28.5q-76 0 -139 -28.5t-109 -79t-72 -118t-26 -143.5v-4z" />
<glyph unicode="p" horiz-adv-x="1359" d="M135 -369v1469h240v-139q66 70 153.5 115.5t210.5 45.5q104 0 202.5 -40t175.5 -115.5t123 -185t46 -249.5v-4q0 -137 -46 -246.5t-123 -186.5t-175.5 -117.5t-202.5 -40.5q-121 0 -210 43t-154 108v-457h-240zM369 528q0 -84 28.5 -151.5t76.5 -115.5t109.5 -74.5 t127.5 -26.5q68 0 128 24.5t105 70.5t71.5 114.5t26.5 156.5v4q0 86 -26.5 155t-72.5 117t-105.5 72.5t-126.5 24.5q-66 0 -127.5 -26.5t-109.5 -74.5t-76.5 -116t-28.5 -150v-4z" />
<glyph unicode="q" horiz-adv-x="1359" d="M74 526v4q0 137 46 247t122.5 186.5t175 117.5t203.5 41q121 0 210 -43t154 -108v129h240v-1469h-240v465q-66 -68 -154 -113.5t-210 -45.5q-104 0 -203 39.5t-175.5 115.5t-122.5 185.5t-46 248.5zM317 528q0 -86 27 -154.5t73 -116.5t105.5 -72.5t126.5 -24.5 q66 0 127.5 26.5t109.5 74.5t76.5 115.5t28.5 151.5v4q0 82 -28.5 151t-76.5 116t-109.5 73.5t-127.5 26.5q-68 0 -128 -24.5t-105 -70.5t-72 -114.5t-27 -157.5v-4z" />
<glyph unicode="r" horiz-adv-x="829" d="M135 -41v1141h240v-170q70 90 174 140q96 46 235 46h23v-250h-53q-78 0 -146.5 -27.5t-121 -83t-82 -138t-29.5 -195.5v-463h-240z" />
<glyph unicode="s" horiz-adv-x="1019" d="M33 127l127 180q109 -86 197.5 -119.5t177.5 -33.5q90 0 134 36.5t44 90.5v4q0 47 -60 82q-33 18 -78 32q-23 10 -47 17.5t-51 15.5q-63 20 -126.5 42t-119.5 56q-59 37 -96 94.5t-37 145.5v4q0 80 32 143.5t86 107.5t127 68.5t157 24.5q104 0 214.5 -35.5t221.5 -109.5 l-115 -189q-98 63 -176 91t-149 28q-86 0 -125 -36t-39 -76v-5q0 -23 13 -40t48 -37q33 -16 82 -33q33 -12 70 -23.5t76 -23.5t76.5 -26.5t74.5 -35.5q72 -39 122 -101.5t50 -164.5v-4q0 -86 -33.5 -153.5t-91 -112.5t-133.5 -68.5t-160 -23.5q-252 0 -493 188z" />
<glyph unicode="t" horiz-adv-x="827" d="M43 879v221h147v319h240v-319h336v-221h-336v-578q0 -78 36 -106.5t101 -28.5q18 0 34.5 2t38.5 8t51.5 18.5t70.5 32.5v-225q-63 -35 -117.5 -48t-114.5 -13q-72 0 -133 19.5t-107 60t-73 105t-27 155.5v598h-147z" />
<glyph unicode="u" horiz-adv-x="1261" d="M119 401v699h239v-660q0 -135 64.5 -206.5t187.5 -71.5q119 0 198 78.5t79 212.5v647h237v-1141h-237v107q-57 -57 -135 -93t-187 -36q-104 0 -187 34.5t-140.5 96t-88 146.5t-30.5 187z" />
<glyph unicode="v" horiz-adv-x="1202" d="M10 1100h262l330 -811l332 811h258l-496 -1149h-192z" />
<glyph unicode="w" horiz-adv-x="1763" d="M29 1100h254l249 -760l256 764h189l258 -764l250 760h250l-402 -1149h-194l-256 749l-258 -749h-197z" />
<glyph unicode="x" horiz-adv-x="1175" d="M-4 -41l448 580l-432 561h285l293 -383l293 383h280l-434 -557l451 -584h-287l-307 406l-310 -406h-280z" />
<glyph unicode="y" horiz-adv-x="1210" d="M6 1100h264l357 -815l313 815h258l-467 -1151q-72 -170 -164 -247t-227 -77q-72 0 -134.5 16.5t-144.5 57.5l86 203q33 -16 57.5 -27.5t45 -18t41 -8.5t43.5 -2q51 0 90 30t82 128z" />
<glyph unicode="z" horiz-adv-x="1138" d="M74 -41v156l655 770h-631v215h975v-156l-657 -770h657v-215h-999z" />
<glyph unicode="{" horiz-adv-x="989" d="M74 485v205h94q117 0 159 47t42 158v33.5t-1 45t-1 44v33.5q0 88 21.5 160.5t78.5 130t157.5 99.5t258.5 70l43 -180q-117 -31 -183.5 -59.5t-98.5 -62t-39 -76.5t-7 -103q0 -31 1 -76t1 -77q0 -111 -40 -179.5t-109 -109.5q72 -41 110.5 -109.5t38.5 -179.5 q0 -33 -1 -78t-1 -76q0 -59 7 -103t40 -78t98.5 -61.5t182.5 -56.5l-43 -182q-158 29 -258.5 71t-157.5 99t-78.5 129t-21.5 162v32.5t1 43t1 44v36.5q0 104 -42 154t-159 50h-94z" />
<glyph unicode="|" horiz-adv-x="620" d="M203 -303v1978h215v-1978h-215z" />
<glyph unicode="}" horiz-adv-x="989" d="M61 -154q117 29 183.5 57.5t99.5 62.5t40 77t7 102q0 31 -1 76t-1 78q0 111 39 179.5t111 109.5q-74 41 -112 109.5t-38 179.5q0 33 1 77.5t1 75.5q0 59 -7 102.5t-40 77t-98.5 62t-184.5 59.5l45 180q158 -29 258.5 -70.5t158 -99t79 -130t21.5 -160.5v-33t-1 -44.5 t-1 -45v-33.5q0 -109 40.5 -157t157.5 -48h94v-205h-94q-117 0 -157.5 -48t-40.5 -156v-36t1 -44.5t1 -43v-32.5q0 -90 -21.5 -162t-79 -129t-158 -99t-258.5 -71z" />
<glyph unicode="~" horiz-adv-x="968" d="M100 483q39 150 92.5 218.5t151.5 68.5q41 0 83 -14.5t77 -30.5q18 -8 34.5 -15.5t32.5 -13.5q35 -10 47 -10q10 0 17.5 2t17 12.5t20.5 33t27 63.5l168 -47q-39 -147 -91 -217t-150 -70q-41 0 -84 14.5t-78 30.5q-16 8 -33.5 15t-34.5 14q-35 10 -45 10t-17 -2 t-16.5 -12.5t-20.5 -33t-28 -63.5z" />
<glyph unicode="&#xa1;" horiz-adv-x="555" d="M143 1178v297h271v-297h-271zM145 -41v160l50 950h165l52 -950v-160h-267z" />
<glyph unicode="&#xa2;" horiz-adv-x="1189" d="M78 723v4q0 119 44 226.5t122 188.5t182 129t227 50l31 166h217l-39 -197q80 -29 144.5 -78t136.5 -122l-160 -166q-53 53 -92 86.5t-78 54.5l-139 -709q92 2 164.5 45t152.5 129l158 -147q-104 -119 -218 -185.5t-272 -64.5h-22l-37 -186h-217l49 233 q-80 33 -144.5 88.5t-111.5 126t-72.5 154.5t-25.5 174zM319 727q0 -104 45.5 -186t118.5 -131l131 686q-61 -8 -115.5 -39t-94 -79t-62.5 -111.5t-23 -135.5v-4z" />
<glyph unicode="&#xa3;" horiz-adv-x="1318" d="M96 -41v168l172 43v393h-172v223h172v181q0 252 142 393q135 135 352 135q86 0 156.5 -19.5t130 -54.5t110.5 -84t98 -110l-188 -150q-39 47 -73.5 82t-70.5 58.5t-76 35t-89 11.5q-53 0 -95 -14.5t-77 -49.5q-37 -37 -56.5 -93t-19.5 -140v-181h571v-223h-571v-379h727 v-225h-1143z" />
<glyph unicode="&#xa4;" horiz-adv-x="1474" d="M74 444v211h162v58v4v39.5t2 38.5h-164v209h202q33 106 89.5 196t132 156.5t170 104.5t202.5 38q98 0 177 -23.5t144.5 -66.5t121 -104.5t106.5 -137.5l-186 -135q-47 63 -88 109.5t-84 75t-90 42t-107 13.5q-109 0 -195.5 -72t-138.5 -196h510v-209h-559q-2 -18 -2 -37 v-37v-4v-31.5t2 -30.5h559v-211h-514q49 -135 142.5 -208.5t218.5 -73.5q53 0 98 14t87 45t83 79t86 114l184 -129q-53 -80 -109 -144.5t-121 -110.5t-142.5 -71t-171.5 -25q-113 0 -211.5 37t-177 104.5t-136 162t-88.5 206.5h-194z" />
<glyph unicode="&#xa5;" horiz-adv-x="1404" d="M-23 1475h293l435 -666l438 666h284l-522 -762h336v-209h-420v-98h420v-209h-420v-238h-237v238h-420v209h420v98h-420v209h334z" />
<glyph unicode="&#xa7;" horiz-adv-x="1294" d="M86 733v4q0 94 59.5 156.5t151.5 95.5q-41 35 -66.5 83t-25.5 106v4q0 74 31.5 132t87 98t132 61.5t167.5 21.5q154 0 283.5 -59.5t242.5 -175.5l-160 -156q-90 86 -178 130t-193 44q-53 0 -85.5 -8t-51 -21.5t-25.5 -31t-7 -33.5v-4q0 -14 9 -29.5t40.5 -34t92 -40 t161.5 -46.5q115 -27 200.5 -56.5t142 -67.5t85 -88t28.5 -118v-4q0 -94 -59.5 -156.5t-151.5 -95.5q41 -35 67 -83t26 -105v-4q0 -74 -32 -132.5t-87.5 -98t-132 -61t-166.5 -21.5q-154 0 -284 59t-243 176l160 156q90 -86 178 -130t193 -44q51 0 85 9t52 22.5t25.5 29.5 t7.5 33v4q0 14 -9.5 30.5t-41 35t-92 39t-160.5 44.5q-229 53 -343 127t-114 203zM319 750q0 -10 8.5 -25.5t35 -34t78 -39t139.5 -41.5q72 -16 123 -23t90 -7q47 0 81.5 10t57 25.5t33 33t10.5 31.5v4q0 10 -8.5 25.5t-35 34t-77.5 38t-139 41.5q-74 16 -124 23.5t-89 7.5 q-47 0 -82 -10t-57.5 -25.5t-33 -33t-10.5 -31.5v-4z" />
<glyph unicode="&#xa8;" horiz-adv-x="1024" d="M199 1178v276h266v-276h-266zM559 1178v276h266v-276h-266z" />
<glyph unicode="&#xa9;" horiz-adv-x="1699" d="M68 713v4q0 160 60 301t166.5 248.5t249 170t308.5 62.5q164 0 306 -61.5t247.5 -168t166 -247.5t60.5 -301v-4q0 -160 -60.5 -301.5t-167 -249t-248.5 -170t-308 -62.5q-164 0 -306.5 61.5t-248 168t-165.5 248t-60 301.5zM217 713q0 -131 48 -246t132 -201t200 -136 t251 -50t252 51t201.5 138t133 203t48.5 245v4q0 131 -48.5 245.5t-132 200.5t-199.5 136.5t-251 50.5t-252 -51.5t-202 -138.5t-133 -202.5t-48 -244.5v-4zM436 725v4q0 88 32 166t89 137.5t135 94t170 34.5q57 0 104.5 -10t88.5 -30.5t80 -51.5t79 -70l-131 -143 q-66 63 -117 92t-106 29q-47 0 -89 -19.5t-72.5 -52.5t-48 -78t-17.5 -96v-4q0 -51 18.5 -96t49 -79t72.5 -53.5t89 -19.5q61 0 108.5 26.5t116.5 92.5l132 -129q-84 -86 -165 -131t-196 -45q-92 0 -169 34.5t-133 93t-88 137.5t-32 167z" />
<glyph unicode="&#xaa;" horiz-adv-x="798" d="M78 551v178h614v-178h-614zM84 1020v4q0 59 23.5 102t63.5 72t93 43t113 14q35 0 63.5 -3t53.5 -7q-23 61 -113 62q-41 0 -83 -13.5t-118 -46.5l-57 164q41 18 74.5 30.5t64.5 22t61.5 13.5t67.5 4q66 0 122 -18.5t97 -59.5q39 -35 55.5 -87t16.5 -114v-395h-182v29 q-66 -41 -156 -41q-43 0 -89 13t-84 41t-62.5 70t-24.5 101zM272 1024q0 -25 21.5 -43t68.5 -18q63 0 100.5 30.5t37.5 71.5v18q-47 12 -115 13q-66 0 -89.5 -22.5t-23.5 -45.5v-4z" />
<glyph unicode="&#xab;" horiz-adv-x="1126" d="M57 508v45l363 475l192 -108l-286 -388l284 -391l-190 -110zM514 508v45l363 475l188 -108l-285 -388l285 -391l-188 -110z" />
<glyph unicode="&#xad;" horiz-adv-x="835" d="M92 492v247h651v-247h-651z" />
<glyph unicode="&#xae;" horiz-adv-x="1699" d="M68 713v4q0 160 60 301t166.5 248.5t249 170t308.5 62.5q164 0 306 -61.5t247.5 -168t166 -247.5t60.5 -301v-4q0 -160 -60.5 -301.5t-167 -249t-248.5 -170t-308 -62.5q-164 0 -306.5 61.5t-248 168t-165.5 248t-60 301.5zM217 713q0 -131 48 -246t132 -201t200 -136 t251 -50t252 51t201.5 138t133 203t48.5 245v4q0 131 -48.5 245.5t-132 200.5t-199.5 136.5t-251 50.5t-252 -51.5t-202 -138.5t-133 -202.5t-48 -244.5v-4zM518 317v842h381q78 0 143.5 -24.5t110.5 -67.5q35 -35 54.5 -77t19.5 -99v-4q0 -92 -48.5 -153.5t-121.5 -90.5 l252 -326h-244l-219 287h-133v-287h-195zM713 786h176q72 0 105.5 27t33.5 68v4q0 35 -30.5 62.5t-102.5 27.5h-182v-189z" />
<glyph unicode="&#xaf;" horiz-adv-x="1024" d="M147 1188v219h730v-219h-730z" />
<glyph unicode="&#xb0;" horiz-adv-x="937" d="M106 1130v5q0 74 30 137t80 111.5t115.5 76t137.5 27.5q70 0 135.5 -27.5t116.5 -76t80.5 -112t29.5 -136.5v-5q0 -72 -29.5 -135t-80.5 -111t-116.5 -77t-135.5 -29q-72 0 -137.5 29t-115.5 77t-80 111.5t-30 134.5zM307 1130q0 -66 46 -114.5t116 -48.5t116 49t46 114 v5q0 66 -46 114.5t-116 48.5t-116 -49t-46 -114v-5z" />
<glyph unicode="&#xb1;" horiz-adv-x="1236" d="M31 238l182 157q94 -119 192.5 -175t225.5 -56q129 0 205.5 62.5t76.5 162.5v4q0 96 -81.5 157.5t-260.5 61.5h-188v222h192q139 0 219 62t80 161v4q0 90 -67.5 149.5t-198.5 59.5q-111 0 -192.5 -51.5t-169.5 -169.5l-185 133q111 154 239 235.5t312 81.5 q106 0 199.5 -30.5t162 -87t107.5 -134.5t39 -172v-4q0 -127 -56 -206t-134 -126q98 -49 163.5 -133t65.5 -213v-4q0 -96 -40 -179t-110.5 -144.5t-167.5 -96.5t-214 -35q-186 0 -333 81t-263 223z" />
<glyph unicode="&#xb4;" horiz-adv-x="1024" d="M295 1178l256 389l250 -115l-287 -274h-219z" />
<glyph unicode="&#xb5;" horiz-adv-x="1740" d="M98 713v4q0 156 56.5 298t158 249.5t244.5 171t315 63.5t312.5 -62.5t242 -168t157.5 -244.5t58 -293q0 -4 1.5 -6t1.5 -6q0 -6 -3 -12q-2 -166 -63 -311.5t-180 -256.5l332 -315v-72h-295l-262 244q-139 -61 -306 -62q-172 0 -314 63.5t-243.5 170t-157 248t-55.5 297.5 zM348 717q0 -115 39 -215.5t109.5 -175t166 -117.5t209.5 -43q113 0 209.5 43t165 116.5t107.5 173t39 214.5v4q0 115 -39 215t-109.5 175t-167 118t-209.5 43q-115 0 -210 -43t-163.5 -117t-107.5 -173t-39 -214v-4z" />
<glyph unicode="&#xb6;" horiz-adv-x="1044" d="M57 985v4q0 117 44 207t122 151.5t184.5 94.5t231.5 33h258v-1516h-246v541q-121 2 -229.5 33.5t-189 93t-128 151.5t-47.5 207z" />
<glyph unicode="&#xb7;" horiz-adv-x="501" d="M117 467v297h270v-297h-270z" />
<glyph unicode="&#xb8;" horiz-adv-x="1024" d="M246 -264l223 325h211l-199 -432z" />
<glyph unicode="&#xba;" horiz-adv-x="798" d="M57 1135v4q0 70 26 133t72 110.5t109.5 75t136.5 27.5q74 0 136.5 -27.5t107.5 -75t70.5 -109t25.5 -130.5v-4q0 -70 -25.5 -132.5t-71.5 -110.5t-109.5 -75.5t-137.5 -27.5t-136 27.5t-107 74.5t-71 108.5t-26 131.5zM63 551v178h672v-178h-672zM250 1139q0 -72 43 -119 t108 -47q66 0 107 45t41 117v4q0 72 -44 119t-108 47q-66 0 -106.5 -45.5t-40.5 -116.5v-4z" />
<glyph unicode="&#xbb;" horiz-adv-x="1126" d="M61 139l285 389l-285 390l189 110l362 -475v-45l-362 -477zM514 139l287 389l-285 390l191 110l362 -475v-45l-362 -477z" />
<glyph unicode="&#xbf;" horiz-adv-x="1099" d="M57 387v4q0 102 35 179t93.5 132.5t136 89t163.5 50.5l21 227h178l39 -387l-37 -37q-104 -2 -177 -21.5t-119 -53t-66.5 -77.5t-20.5 -96v-4q0 -92 66.5 -158.5t191.5 -66.5q100 0 185 49t184 162l162 -156q-109 -133 -234 -207.5t-301 -74.5q-111 0 -203 32.5t-158.5 92 t-102.5 141.5t-36 180zM463 1178v297h270v-297h-270z" />
<glyph unicode="&#xc0;" d="M16 -41l691 1526h204l691 -1526h-265l-168 379h-727l-170 -379h-256zM440 1794l250 115l256 -389h-219zM543 565h526l-262 590z" />
<glyph unicode="&#xc1;" d="M16 -41l691 1526h204l691 -1526h-265l-168 379h-727l-170 -379h-256zM543 565h526l-262 590zM672 1520l256 389l250 -115l-287 -274h-219z" />
<glyph unicode="&#xc2;" d="M16 -41l691 1526h204l691 -1526h-265l-168 379h-727l-170 -379h-256zM436 1513l283 351h180l283 -351h-238l-137 123l-137 -123h-234zM543 565h526l-262 590z" />
<glyph unicode="&#xc3;" d="M16 -41l691 1526h204l691 -1526h-265l-168 379h-727l-170 -379h-256zM424 1540q39 150 92 217.5t152 67.5q41 0 84 -14.5t77 -30.5q16 -6 34 -13.5t34 -13.5q35 -10 45 -10t18.5 2t16.5 12t19.5 31.5t27.5 62.5l170 -47q-39 -150 -92.5 -217t-151.5 -67q-41 0 -84 14 t-78 31q-16 6 -33.5 13t-33.5 13q-35 10 -45 11q-10 0 -18.5 -2.5t-16.5 -12.5t-19.5 -32.5t-27.5 -61.5zM543 565h526l-262 590z" />
<glyph unicode="&#xc4;" d="M16 -41l691 1526h204l691 -1526h-265l-168 379h-727l-170 -379h-256zM496 1520v276h266v-276h-266zM543 565h526l-262 590zM856 1520v276h266v-276h-266z" />
<glyph unicode="&#xc5;" d="M16 -41l641 1417q-45 35 -73.5 84t-28.5 109v4q0 49 20.5 94t56.5 78t82 52.5t95 19.5t95 -19.5t82 -52.5t56.5 -78t20.5 -94v-4q0 -59 -28.5 -108.5t-73.5 -84.5l641 -1417h-265l-168 379h-727l-170 -379h-256zM543 565h526l-262 590zM723 1569q0 -35 25.5 -59.5 t60.5 -24.5t60.5 24.5t25.5 59.5v4q0 35 -24.5 59.5t-61.5 24.5t-61.5 -24.5t-24.5 -59.5v-4z" />
<glyph unicode="&#xc6;" horiz-adv-x="2140" d="M-37 -41l891 1516h1194v-230h-838v-407h746v-230h-746v-420h848v-229h-1093v379h-514l-224 -379h-264zM582 565h383v658z" />
<glyph unicode="&#xc7;" horiz-adv-x="1511" d="M98 713v4q0 160 57.5 302t159 248.5t242.5 169t307 62.5q102 0 186.5 -17.5t158 -51t140 -84t132.5 -113.5l-166 -178q-55 51 -107.5 91t-106.5 67.5t-112.5 41t-126.5 13.5q-111 0 -204 -42t-162.5 -116t-108.5 -173t-39 -216v-4q0 -117 39 -217.5t108.5 -175 t163 -116.5t203.5 -42q68 0 126.5 13.5t112.5 41t108.5 69.5t115.5 99l164 -162q-63 -66 -127 -117t-132.5 -87.5t-145 -58t-166.5 -27.5l-142 -308l-235 107l149 217q-131 29 -239.5 97.5t-187.5 168.5t-122 226t-43 268z" />
<glyph unicode="&#xc8;" horiz-adv-x="1372" d="M162 -41v1516h1118v-230h-874v-407h782v-230h-782v-420h884v-229h-1128zM393 1794l250 115l256 -389h-219z" />
<glyph unicode="&#xc9;" horiz-adv-x="1372" d="M162 -41v1516h1118v-230h-874v-407h782v-230h-782v-420h884v-229h-1128zM532 1520l256 389l250 -115l-286 -274h-220z" />
<glyph unicode="&#xca;" horiz-adv-x="1372" d="M162 -41v1516h1118v-230h-874v-407h782v-230h-782v-420h884v-229h-1128zM340 1520l283 350h180l282 -350h-237l-137 122l-138 -122h-233z" />
<glyph unicode="&#xcb;" horiz-adv-x="1372" d="M162 -41v1516h1118v-230h-874v-407h782v-230h-782v-420h884v-229h-1128zM399 1520v276h267v-276h-267zM760 1520v276h266v-276h-266z" />
<glyph unicode="&#xcc;" horiz-adv-x="595" d="M-68 1794l250 115l256 -389h-219zM176 -41v1516h244v-1516h-244z" />
<glyph unicode="&#xcd;" horiz-adv-x="595" d="M158 1520l256 389l250 -115l-287 -274h-219zM176 -41v1516h244v-1516h-244z" />
<glyph unicode="&#xce;" horiz-adv-x="595" d="M-74 1520l283 350h180l283 -350h-238l-137 122l-137 -122h-234zM176 -41v1516h244v-1516h-244z" />
<glyph unicode="&#xcf;" horiz-adv-x="595" d="M-14 1520v276h266v-276h-266zM176 -41v1516h244v-1516h-244zM346 1520v276h266v-276h-266z" />
<glyph unicode="&#xd0;" horiz-adv-x="1662" d="M70 606v230h153v639h539q176 0 323.5 -57.5t254 -159t166 -239.5t59.5 -298v-4q0 -160 -59.5 -299t-166 -240.5t-254 -160t-323.5 -58.5h-539v647h-153zM467 190h295q127 0 229.5 40t174 110t110.5 166t39 207v4q0 111 -39 207t-110.5 166.5t-174 111.5t-229.5 41h-295 v-407h430v-230h-430v-416z" />
<glyph unicode="&#xd1;" d="M162 -41v1516h213l842 -1072v1072h239v-1516h-190l-865 1098v-1098h-239zM424 1540q39 150 92 217.5t152 67.5q41 0 84 -14.5t77 -30.5q16 -6 34 -13.5t34 -13.5q35 -10 45 -10t18.5 2t16.5 12t19.5 31.5t27.5 62.5l170 -47q-39 -150 -92.5 -217t-151.5 -67q-41 0 -84 14 t-78 31q-16 6 -33.5 13t-33.5 13q-35 10 -45 11q-10 0 -18.5 -2.5t-16.5 -12.5t-19.5 -32.5t-27.5 -61.5z" />
<glyph unicode="&#xd2;" horiz-adv-x="1740" d="M98 713v4q0 156 56.5 298t158 249.5t244.5 171t315 63.5t312.5 -62.5t242 -168t157.5 -244.5t58 -293q0 -4 1.5 -6t1.5 -6t-1.5 -6t-1.5 -6q-2 -154 -58 -294.5t-158.5 -247t-244 -169t-313.5 -62.5t-314 63.5t-243.5 170t-157 248t-55.5 297.5zM348 717 q0 -115 39 -215.5t109.5 -175t166 -117.5t209.5 -43q113 0 209.5 43t165 116.5t107.5 173t39 214.5v4q0 115 -39 215t-109.5 175t-167 118t-209.5 43q-115 0 -210 -43t-163.5 -117t-107.5 -173t-39 -214v-4zM494 1794l249 115l256 -389h-219z" />
<glyph unicode="&#xd3;" horiz-adv-x="1740" d="M98 713v4q0 156 56.5 298t158 249.5t244.5 171t315 63.5t312.5 -62.5t242 -168t157.5 -244.5t58 -293q0 -4 1.5 -6t1.5 -6t-1.5 -6t-1.5 -6q-2 -154 -58 -294.5t-158.5 -247t-244 -169t-313.5 -62.5t-314 63.5t-243.5 170t-157 248t-55.5 297.5zM348 717 q0 -115 39 -215.5t109.5 -175t166 -117.5t209.5 -43q113 0 209.5 43t165 116.5t107.5 173t39 214.5v4q0 115 -39 215t-109.5 175t-167 118t-209.5 43q-115 0 -210 -43t-163.5 -117t-107.5 -173t-39 -214v-4zM741 1520l256 389l250 -115l-286 -274h-220z" />
<glyph unicode="&#xd4;" horiz-adv-x="1740" d="M98 713v4q0 156 56.5 298t158 249.5t244.5 171t315 63.5t312.5 -62.5t242 -168t157.5 -244.5t58 -293q0 -4 1.5 -6t1.5 -6t-1.5 -6t-1.5 -6q-2 -154 -58 -294.5t-158.5 -247t-244 -169t-313.5 -62.5t-314 63.5t-243.5 170t-157 248t-55.5 297.5zM348 717 q0 -115 39 -215.5t109.5 -175t166 -117.5t209.5 -43q113 0 209.5 43t165 116.5t107.5 173t39 214.5v4q0 115 -39 215t-109.5 175t-167 118t-209.5 43q-115 0 -210 -43t-163.5 -117t-107.5 -173t-39 -214v-4zM498 1520l282 350h181l282 -350h-237l-138 122l-137 -122h-233z " />
<glyph unicode="&#xd5;" horiz-adv-x="1740" d="M98 713v4q0 156 56.5 298t158 249.5t244.5 171t315 63.5t312.5 -62.5t242 -168t157.5 -244.5t58 -293q0 -4 1.5 -6t1.5 -6t-1.5 -6t-1.5 -6q-2 -154 -58 -294.5t-158.5 -247t-244 -169t-313.5 -62.5t-314 63.5t-243.5 170t-157 248t-55.5 297.5zM348 717 q0 -115 39 -215.5t109.5 -175t166 -117.5t209.5 -43q113 0 209.5 43t165 116.5t107.5 173t39 214.5v4q0 115 -39 215t-109.5 175t-167 118t-209.5 43q-115 0 -210 -43t-163.5 -117t-107.5 -173t-39 -214v-4zM485 1540q39 150 92.5 217.5t151.5 67.5q41 0 84 -14.5t78 -30.5 q16 -6 33.5 -13.5t33.5 -13.5q35 -10 46 -10q10 0 18 2t16.5 12t19.5 31.5t27 62.5l170 -47q-39 -150 -92 -217t-151 -67q-41 0 -84 14t-78 31q-16 6 -33.5 13t-34.5 13q-35 10 -45 11q-10 0 -18 -2.5t-16.5 -12.5t-19.5 -32.5t-28 -61.5z" />
<glyph unicode="&#xd6;" horiz-adv-x="1740" d="M98 713v4q0 156 56.5 298t158 249.5t244.5 171t315 63.5t312.5 -62.5t242 -168t157.5 -244.5t58 -293q0 -4 1.5 -6t1.5 -6t-1.5 -6t-1.5 -6q-2 -154 -58 -294.5t-158.5 -247t-244 -169t-313.5 -62.5t-314 63.5t-243.5 170t-157 248t-55.5 297.5zM348 717 q0 -115 39 -215.5t109.5 -175t166 -117.5t209.5 -43q113 0 209.5 43t165 116.5t107.5 173t39 214.5v4q0 115 -39 215t-109.5 175t-167 118t-209.5 43q-115 0 -210 -43t-163.5 -117t-107.5 -173t-39 -214v-4zM557 1520v276h266v-276h-266zM918 1520v276h266v-276h-266z" />
<glyph unicode="&#xd8;" horiz-adv-x="1740" d="M31 -51l239 262q-86 104 -129 232t-43 270v4q0 156 56.5 298t158 249.5t244.5 171t315 63.5q131 0 241 -36t204 -101l113 123h280l-240 -262q86 -104 128 -229.5t44 -262.5q0 -4 1.5 -6t1.5 -6t-1.5 -6t-1.5 -6q-2 -154 -58 -294.5t-158.5 -247t-244 -169t-313.5 -62.5 q-131 0 -240.5 35t-203.5 101l-113 -121h-280zM348 717q0 -178 92 -318l717 783q-59 41 -131 64.5t-158 23.5q-115 0 -210 -43t-163.5 -117t-107.5 -174t-39 -215v-4zM584 252q59 -41 130.5 -64.5t157.5 -23.5q113 0 209.5 43t165 116.5t107.5 174t39 215.5v4q0 178 -93 317 z" />
<glyph unicode="&#xd9;" horiz-adv-x="1554" d="M139 600v875h244v-865q0 -223 103.5 -332.5t293.5 -109.5q180 0 285.5 105.5t105.5 326.5v875h244v-863q0 -166 -46 -291.5t-130 -211.5t-202 -129t-261 -43q-141 0 -258 43t-202 128t-131 208.5t-46 283.5zM422 1784l250 114l256 -389h-219z" />
<glyph unicode="&#xda;" horiz-adv-x="1554" d="M139 600v875h244v-865q0 -223 103.5 -332.5t293.5 -109.5q180 0 285.5 105.5t105.5 326.5v875h244v-863q0 -166 -46 -291.5t-130 -211.5t-202 -129t-261 -43q-141 0 -258 43t-202 128t-131 208.5t-46 283.5zM627 1509l256 389l250 -114l-287 -275h-219z" />
<glyph unicode="&#xdb;" horiz-adv-x="1554" d="M139 600v875h244v-865q0 -223 103.5 -332.5t293.5 -109.5q180 0 285.5 105.5t105.5 326.5v875h244v-863q0 -166 -46 -291.5t-130 -211.5t-202 -129t-261 -43q-141 0 -258 43t-202 128t-131 208.5t-46 283.5zM403 1513l283 351h180l283 -351h-238l-137 123l-137 -123h-234 z" />
<glyph unicode="&#xdc;" horiz-adv-x="1554" d="M139 600v875h244v-865q0 -223 103.5 -332.5t293.5 -109.5q180 0 285.5 105.5t105.5 326.5v875h244v-863q0 -166 -46 -291.5t-130 -211.5t-202 -129t-261 -43q-141 0 -258 43t-202 128t-131 208.5t-46 283.5zM463 1513v277h266v-277h-266zM823 1513v277h267v-277h-267z " />
<glyph unicode="&#xdd;" horiz-adv-x="1466" d="M-23 1475h297l461 -684l465 684h289l-633 -918v-598h-246v596zM598 1509l256 389l250 -114l-287 -275h-219z" />
<glyph unicode="&#xde;" horiz-adv-x="1378" d="M162 -41v1516h244v-246h333q127 0 233.5 -34t183.5 -98.5t119 -155.5t42 -208v-4q0 -129 -50 -225t-133 -159.5t-192.5 -95.5t-228.5 -32h-307v-258h-244zM406 446h313q168 0 260 79t92 198v4q0 131 -89 200.5t-255 69.5h-321v-551z" />
<glyph unicode="&#xdf;" horiz-adv-x="1269" d="M135 -41v1067q0 117 36 213t101.5 165t158.5 107.5t210 38.5q102 0 187 -30.5t146.5 -86t95.5 -130t34 -162.5v-4q0 -129 -65.5 -219.5t-151.5 -145.5q61 -23 116.5 -55.5t97.5 -78.5t66.5 -105.5t24.5 -135.5v-4q0 -109 -45 -190.5t-128 -138t-200 -84t-262 -25.5v209 q211 4 301 65.5t90 163.5v4q0 96 -92 158.5t-299 85.5v182q147 55 225 125t78 178v4q0 86 -58.5 142.5t-168.5 56.5q-111 0 -184.5 -76.5t-73.5 -224.5v-1069h-240z" />
<glyph unicode="&#xe0;" horiz-adv-x="1185" d="M55 307v4q0 98 38 171t104.5 121t156.5 71.5t195 23.5q88 0 154.5 -8t127.5 -24q-12 225 -272 225q-88 0 -165 -21.5t-179 -70.5l-76 207q115 55 214.5 82.5t221.5 27.5q117 0 211.5 -31.5t159.5 -97.5q123 -123 123 -340v-688h-238v96q-59 -53 -143 -85.5t-196 -32.5 q-78 0 -156 22.5t-140.5 68.5t-101.5 115.5t-39 163.5zM231 1452l250 115l256 -389h-219zM297 315q0 -76 63.5 -123t161.5 -47q68 0 125.5 18.5t99 51.5t64.5 77t23 97v68q-53 14 -119 24.5t-150 10.5q-141 0 -204.5 -50.5t-63.5 -122.5v-4z" />
<glyph unicode="&#xe1;" horiz-adv-x="1185" d="M55 307v4q0 98 38 171t104.5 121t156.5 71.5t195 23.5q88 0 154.5 -8t127.5 -24q-12 225 -272 225q-88 0 -165 -21.5t-179 -70.5l-76 207q115 55 214.5 82.5t221.5 27.5q117 0 211.5 -31.5t159.5 -97.5q123 -123 123 -340v-688h-238v96q-59 -53 -143 -85.5t-196 -32.5 q-78 0 -156 22.5t-140.5 68.5t-101.5 115.5t-39 163.5zM297 315q0 -76 63.5 -123t161.5 -47q68 0 125.5 18.5t99 51.5t64.5 77t23 97v68q-53 14 -119 24.5t-150 10.5q-141 0 -204.5 -50.5t-63.5 -122.5v-4zM432 1178l256 389l250 -115l-287 -274h-219z" />
<glyph unicode="&#xe2;" horiz-adv-x="1185" d="M55 307v4q0 98 38 171t104.5 121t156.5 71.5t195 23.5q88 0 154.5 -8t127.5 -24q-12 225 -272 225q-88 0 -165 -21.5t-179 -70.5l-76 207q115 55 214.5 82.5t221.5 27.5q117 0 211.5 -31.5t159.5 -97.5q123 -123 123 -340v-688h-238v96q-59 -53 -143 -85.5t-196 -32.5 q-78 0 -156 22.5t-140.5 68.5t-101.5 115.5t-39 163.5zM223 1178l283 350h180l283 -350h-238l-137 122l-137 -122h-234zM297 315q0 -76 63.5 -123t161.5 -47q68 0 125.5 18.5t99 51.5t64.5 77t23 97v68q-53 14 -119 24.5t-150 10.5q-141 0 -204.5 -50.5t-63.5 -122.5v-4z " />
<glyph unicode="&#xe3;" horiz-adv-x="1185" d="M55 307v4q0 98 38 171t104.5 121t156.5 71.5t195 23.5q88 0 154.5 -8t127.5 -24q-12 225 -272 225q-88 0 -165 -21.5t-179 -70.5l-76 207q115 55 214.5 82.5t221.5 27.5q117 0 211.5 -31.5t159.5 -97.5q123 -123 123 -340v-688h-238v96q-59 -53 -143 -85.5t-196 -32.5 q-78 0 -156 22.5t-140.5 68.5t-101.5 115.5t-39 163.5zM213 1198q39 150 92 217.5t152 67.5q41 0 84 -14.5t77 -30.5q16 -6 34 -13.5t34 -13.5q35 -10 45 -10t18.5 2t16.5 12t19.5 31.5t27.5 62.5l170 -47q-39 -150 -92.5 -217t-151.5 -67q-41 0 -84 14t-77 31q-16 6 -34 13 t-34 13q-35 10 -45 11q-10 0 -18.5 -2.5t-16.5 -12.5t-19.5 -32.5t-27.5 -61.5zM297 315q0 -76 63.5 -123t161.5 -47q68 0 125.5 18.5t99 51.5t64.5 77t23 97v68q-53 14 -119 24.5t-150 10.5q-141 0 -204.5 -50.5t-63.5 -122.5v-4z" />
<glyph unicode="&#xe4;" horiz-adv-x="1185" d="M55 307v4q0 98 38 171t104.5 121t156.5 71.5t195 23.5q88 0 154.5 -8t127.5 -24q-12 225 -272 225q-88 0 -165 -21.5t-179 -70.5l-76 207q115 55 214.5 82.5t221.5 27.5q117 0 211.5 -31.5t159.5 -97.5q123 -123 123 -340v-688h-238v96q-59 -53 -143 -85.5t-196 -32.5 q-78 0 -156 22.5t-140.5 68.5t-101.5 115.5t-39 163.5zM283 1178v276h266v-276h-266zM297 315q0 -76 63.5 -123t161.5 -47q68 0 125.5 18.5t99 51.5t64.5 77t23 97v68q-53 14 -119 24.5t-150 10.5q-141 0 -204.5 -50.5t-63.5 -122.5v-4zM643 1178v276h266v-276h-266z" />
<glyph unicode="&#xe5;" horiz-adv-x="1185" d="M55 307v4q0 98 38 171t104.5 121t156.5 71.5t195 23.5q88 0 154.5 -8t127.5 -24q-12 225 -272 225q-88 0 -165 -21.5t-179 -70.5l-76 207q115 55 214.5 82.5t221.5 27.5q117 0 211.5 -31.5t159.5 -97.5q123 -123 123 -340v-688h-238v96q-59 -53 -143 -85.5t-196 -32.5 q-78 0 -156 22.5t-140.5 68.5t-101.5 115.5t-39 163.5zM297 315q0 -76 63.5 -123t161.5 -47q68 0 125.5 18.5t99 51.5t64.5 77t23 97v68q-53 14 -119 24.5t-150 10.5q-141 0 -204.5 -50.5t-63.5 -122.5v-4zM342 1417v4q0 49 20.5 94.5t56.5 78t82 52t95 19.5t95 -19.5 t82 -52t56.5 -78t20.5 -94.5v-4q0 -49 -20.5 -94t-56.5 -78t-82 -52t-95 -19t-95 19t-82 52t-56.5 78t-20.5 94zM510 1417q0 -35 25.5 -59.5t60.5 -24.5t60.5 24.5t25.5 59.5v4q0 35 -24.5 59.5t-61.5 24.5t-61.5 -24.5t-24.5 -59.5v-4z" />
<glyph unicode="&#xe6;" horiz-adv-x="1951" d="M55 307v4q0 98 38 171t104.5 121t154.5 71.5t189 23.5q82 0 144 -9t128 -23q-6 115 -72.5 170t-189.5 55q-80 0 -157 -21.5t-179 -70.5l-76 207q115 55 213.5 82.5t214.5 27.5q129 0 232.5 -45t161.5 -143q72 90 174 142t225 52q127 0 226.5 -48t167 -131t103 -191.5 t35.5 -231.5q0 -10 -1 -29.5t-5 -66.5h-829q29 -131 119 -200.5t206 -69.5q100 0 174 41t158 124l158 -141q-104 -121 -218 -182.5t-276 -61.5q-129 0 -237.5 51.5t-186.5 143.5q-92 -80 -215 -136t-256 -56q-74 0 -150.5 22.5t-138 68.5t-100.5 115.5t-39 163.5zM297 315 q0 -76 62.5 -123t154.5 -47q119 0 193.5 42t140.5 114q-14 39 -22.5 78t-12.5 80q-53 14 -115.5 23.5t-140.5 9.5q-135 0 -197.5 -50.5t-62.5 -122.5v-4zM1057 633h588q-20 117 -94 195.5t-197 78.5q-106 0 -188.5 -74.5t-108.5 -199.5z" />
<glyph unicode="&#xe7;" horiz-adv-x="1169" d="M70 524v4q0 121 44 228.5t121.5 189.5t184 129t233.5 47q80 0 146.5 -16t124 -46t108.5 -73t101 -94l-160 -170q-41 43 -79 77t-76 56.5t-78 33.5t-89 11q-72 0 -133 -27.5t-106 -76.5t-72 -117t-27 -148v-4q0 -78 27 -145.5t74 -117.5t110.5 -78.5t137.5 -28.5 q92 0 165.5 44t155.5 130l160 -150q-98 -109 -196.5 -171t-235.5 -74l-142 -308l-235 107l153 223q-92 27 -168.5 81t-132 128t-86 165t-30.5 191z" />
<glyph unicode="&#xe8;" horiz-adv-x="1212" d="M70 528q0 123 41 230.5t113.5 188.5t173 128t220.5 47q129 0 228.5 -48t167 -131t103.5 -191.5t36 -231.5q0 -10 -1 -29.5t-5 -66.5h-830q29 -131 119 -200.5t207 -69.5q100 0 174 41t158 124l158 -141q-104 -121 -218 -182.5t-276 -61.5q-117 0 -220.5 43t-181 122 t-122.5 187.5t-45 241.5zM262 1452l250 115l256 -389h-219zM317 633h588q-20 117 -94 195.5t-197 78.5q-106 0 -188 -74.5t-109 -199.5z" />
<glyph unicode="&#xe9;" horiz-adv-x="1212" d="M70 528q0 123 41 230.5t113.5 188.5t173 128t220.5 47q129 0 228.5 -48t167 -131t103.5 -191.5t36 -231.5q0 -10 -1 -29.5t-5 -66.5h-830q29 -131 119 -200.5t207 -69.5q100 0 174 41t158 124l158 -141q-104 -121 -218 -182.5t-276 -61.5q-117 0 -220.5 43t-181 122 t-122.5 187.5t-45 241.5zM317 633h588q-20 117 -94 195.5t-197 78.5q-106 0 -188 -74.5t-109 -199.5zM444 1178l256 389l250 -115l-286 -274h-220z" />
<glyph unicode="&#xea;" horiz-adv-x="1212" d="M70 528q0 123 41 230.5t113.5 188.5t173 128t220.5 47q129 0 228.5 -48t167 -131t103.5 -191.5t36 -231.5q0 -10 -1 -29.5t-5 -66.5h-830q29 -131 119 -200.5t207 -69.5q100 0 174 41t158 124l158 -141q-104 -121 -218 -182.5t-276 -61.5q-117 0 -220.5 43t-181 122 t-122.5 187.5t-45 241.5zM240 1178l282 350h180l283 -350h-237l-138 122l-137 -122h-233zM317 633h588q-20 117 -94 195.5t-197 78.5q-106 0 -188 -74.5t-109 -199.5z" />
<glyph unicode="&#xeb;" horiz-adv-x="1212" d="M70 528q0 123 41 230.5t113.5 188.5t173 128t220.5 47q129 0 228.5 -48t167 -131t103.5 -191.5t36 -231.5q0 -10 -1 -29.5t-5 -66.5h-830q29 -131 119 -200.5t207 -69.5q100 0 174 41t158 124l158 -141q-104 -121 -218 -182.5t-276 -61.5q-117 0 -220.5 43t-181 122 t-122.5 187.5t-45 241.5zM299 1178v276h266v-276h-266zM317 633h588q-20 117 -94 195.5t-197 78.5q-106 0 -188 -74.5t-109 -199.5zM659 1178v276h267v-276h-267z" />
<glyph unicode="&#xec;" horiz-adv-x="538" d="M-94 1452l250 115l256 -389h-219zM150 -41v1141h239v-1141h-239z" />
<glyph unicode="&#xed;" horiz-adv-x="538" d="M129 1178l256 389l250 -115l-287 -274h-219zM150 -41v1141h239v-1141h-239z" />
<glyph unicode="&#xee;" horiz-adv-x="538" d="M-104 1178l282 350h180l283 -350h-238l-137 122l-137 -122h-233zM150 -41v1141h239v-1141h-239z" />
<glyph unicode="&#xef;" horiz-adv-x="538" d="M-45 1178v276h266v-276h-266zM150 -41v1141h239v-1141h-239zM315 1178v276h267v-276h-267z" />
<glyph unicode="&#xf0;" horiz-adv-x="1296" d="M70 502v4q0 119 42 217t114.5 168t167.5 107.5t202 37.5q57 0 105.5 -8t89.5 -24l-144 204l-262 -129l-125 164l270 125l-120 168h290l45 -68l201 97l123 -164l-211 -96l180 -267q43 -63 77 -123.5t58.5 -123t38 -130t13.5 -143.5v-4q0 -115 -41 -220.5t-117 -185 t-184.5 -127t-243.5 -47.5q-123 0 -226.5 45.5t-180 123t-119.5 180t-43 219.5zM311 496q0 -66 25.5 -127.5t70 -108.5t106.5 -75.5t136 -28.5t135.5 27.5t105.5 74.5t67.5 108.5t23.5 131.5v4q0 66 -26.5 125t-72.5 104t-109.5 71.5t-139.5 26.5q-74 0 -133.5 -25.5 t-101.5 -69.5t-64.5 -104.5t-22.5 -129.5v-4z" />
<glyph unicode="&#xf1;" horiz-adv-x="1261" d="M135 -41v1141h240v-107q57 57 135 93t186 36q104 0 187.5 -34.5t140.5 -96t88 -146.5t31 -188v-698h-240v659q0 135 -64.5 207t-187.5 72q-119 0 -197.5 -79t-78.5 -212v-647h-240zM254 1198q39 150 92 217.5t152 67.5q41 0 84 -14.5t77 -30.5q16 -6 34 -13.5t34 -13.5 q35 -10 45 -10t18.5 2t16.5 12t19.5 31.5t27.5 62.5l170 -47q-39 -150 -92.5 -217t-151.5 -67q-41 0 -84 14t-78 31q-16 6 -33.5 13t-33.5 13q-35 10 -45 11q-10 0 -18.5 -2.5t-16.5 -12.5t-19.5 -32.5t-27.5 -61.5z" />
<glyph unicode="&#xf2;" horiz-adv-x="1323" d="M70 524v4q0 121 44 229.5t122.5 189.5t188.5 128t239 47t237.5 -47t187 -127t122.5 -187.5t44 -228.5v-4q0 -121 -45 -229.5t-124.5 -189t-188.5 -128t-238 -47.5q-127 0 -235.5 47.5t-187 127t-122.5 187t-44 228.5zM295 1452l250 115l256 -389h-219zM313 528 q0 -78 27 -145.5t74 -117.5t111.5 -78.5t138.5 -28.5q76 0 140 28.5t110.5 78.5t72 117t25.5 142v4q0 78 -27 145.5t-75 119t-112.5 80t-138.5 28.5q-76 0 -139 -28.5t-109 -79t-72 -118t-26 -143.5v-4z" />
<glyph unicode="&#xf3;" horiz-adv-x="1323" d="M70 524v4q0 121 44 229.5t122.5 189.5t188.5 128t239 47t237.5 -47t187 -127t122.5 -187.5t44 -228.5v-4q0 -121 -45 -229.5t-124.5 -189t-188.5 -128t-238 -47.5q-127 0 -235.5 47.5t-187 127t-122.5 187t-44 228.5zM313 528q0 -78 27 -145.5t74 -117.5t111.5 -78.5 t138.5 -28.5q76 0 140 28.5t110.5 78.5t72 117t25.5 142v4q0 78 -27 145.5t-75 119t-112.5 80t-138.5 28.5q-76 0 -139 -28.5t-109 -79t-72 -118t-26 -143.5v-4zM524 1178l256 389l250 -115l-287 -274h-219z" />
<glyph unicode="&#xf4;" horiz-adv-x="1323" d="M70 524v4q0 121 44 229.5t122.5 189.5t188.5 128t239 47t237.5 -47t187 -127t122.5 -187.5t44 -228.5v-4q0 -121 -45 -229.5t-124.5 -189t-188.5 -128t-238 -47.5q-127 0 -235.5 47.5t-187 127t-122.5 187t-44 228.5zM289 1178l282 350h181l282 -350h-237l-138 122 l-137 -122h-233zM313 528q0 -78 27 -145.5t74 -117.5t111.5 -78.5t138.5 -28.5q76 0 140 28.5t110.5 78.5t72 117t25.5 142v4q0 78 -27 145.5t-75 119t-112.5 80t-138.5 28.5q-76 0 -139 -28.5t-109 -79t-72 -118t-26 -143.5v-4z" />
<glyph unicode="&#xf5;" horiz-adv-x="1323" d="M70 524v4q0 121 44 229.5t122.5 189.5t188.5 128t239 47t237.5 -47t187 -127t122.5 -187.5t44 -228.5v-4q0 -121 -45 -229.5t-124.5 -189t-188.5 -128t-238 -47.5q-127 0 -235.5 47.5t-187 127t-122.5 187t-44 228.5zM276 1198q39 150 92.5 217.5t151.5 67.5 q41 0 84 -14.5t78 -30.5q16 -6 33.5 -13.5t34.5 -13.5q35 -10 45 -10t18 2t16.5 12t19.5 31.5t28 62.5l170 -47q-39 -150 -92.5 -217t-151.5 -67q-41 0 -84 14t-78 31q-16 6 -33.5 13t-34.5 13q-35 10 -45 11q-10 0 -18 -2.5t-16.5 -12.5t-19.5 -32.5t-28 -61.5zM313 528 q0 -78 27 -145.5t74 -117.5t111.5 -78.5t138.5 -28.5q76 0 140 28.5t110.5 78.5t72 117t25.5 142v4q0 78 -27 145.5t-75 119t-112.5 80t-138.5 28.5q-76 0 -139 -28.5t-109 -79t-72 -118t-26 -143.5v-4z" />
<glyph unicode="&#xf6;" horiz-adv-x="1323" d="M70 524v4q0 121 44 229.5t122.5 189.5t188.5 128t239 47t237.5 -47t187 -127t122.5 -187.5t44 -228.5v-4q0 -121 -45 -229.5t-124.5 -189t-188.5 -128t-238 -47.5q-127 0 -235.5 47.5t-187 127t-122.5 187t-44 228.5zM313 528q0 -78 27 -145.5t74 -117.5t111.5 -78.5 t138.5 -28.5q76 0 140 28.5t110.5 78.5t72 117t25.5 142v4q0 78 -27 145.5t-75 119t-112.5 80t-138.5 28.5q-76 0 -139 -28.5t-109 -79t-72 -118t-26 -143.5v-4zM348 1178v276h266v-276h-266zM709 1178v276h266v-276h-266z" />
<glyph unicode="&#xf8;" horiz-adv-x="1323" d="M-14 -51l202 217q-57 74 -87.5 165t-30.5 193v4q0 121 44 229.5t122.5 189.5t188.5 128t239 47q92 0 174 -23.5t151 -72.5l78 86h272l-137 -147l-57 -58l-10 -12q59 -76 89.5 -167t30.5 -196v-4q0 -121 -45 -229.5t-124.5 -189t-188.5 -128t-238 -47.5q-96 0 -176 25 t-149 72l-80 -82h-268zM311 528q0 -98 45 -182l480 506q-77 51 -177 51q-76 0 -140 -28.5t-110.5 -80t-72 -119t-25.5 -143.5v-4zM489 205q74 -49 175 -49q78 0 142 28.5t110.5 78.5t72 118t25.5 143v4q0 100 -45 185z" />
<glyph unicode="&#xf9;" horiz-adv-x="1261" d="M119 401v699h239v-660q0 -135 64.5 -206.5t187.5 -71.5q119 0 198 78.5t79 212.5v647h237v-1141h-237v107q-57 -57 -135 -93t-187 -36q-104 0 -187 34.5t-140.5 96t-88 146.5t-30.5 187zM279 1444l249 115l256 -390h-219z" />
<glyph unicode="&#xfa;" horiz-adv-x="1261" d="M119 401v699h239v-660q0 -135 64.5 -206.5t187.5 -71.5q119 0 198 78.5t79 212.5v647h237v-1141h-237v107q-57 -57 -135 -93t-187 -36q-104 0 -187 34.5t-140.5 96t-88 146.5t-30.5 187zM469 1169l256 390l250 -115l-287 -275h-219z" />
<glyph unicode="&#xfb;" horiz-adv-x="1261" d="M119 401v699h239v-660q0 -135 64.5 -206.5t187.5 -71.5q119 0 198 78.5t79 212.5v647h237v-1141h-237v107q-57 -57 -135 -93t-187 -36q-104 0 -187 34.5t-140.5 96t-88 146.5t-30.5 187zM260 1178l283 350h180l283 -350h-238l-137 122l-137 -122h-234z" />
<glyph unicode="&#xfc;" horiz-adv-x="1261" d="M119 401v699h239v-660q0 -135 64.5 -206.5t187.5 -71.5q119 0 198 78.5t79 212.5v647h237v-1141h-237v107q-57 -57 -135 -93t-187 -36q-104 0 -187 34.5t-140.5 96t-88 146.5t-30.5 187zM319 1178v276h267v-276h-267zM680 1178v276h266v-276h-266z" />
<glyph unicode="&#xfd;" horiz-adv-x="1210" d="M6 1100h264l357 -815l313 815h258l-467 -1151q-72 -170 -164 -247t-227 -77q-72 0 -134.5 16.5t-144.5 57.5l86 203q33 -16 57.5 -27.5t45 -18t41 -8.5t43.5 -2q51 0 90 30t82 128zM471 1169l256 390l250 -115l-287 -275h-219z" />
<glyph unicode="&#xfe;" horiz-adv-x="1359" d="M135 -369v1905h240v-575q66 70 153.5 115.5t210.5 45.5q104 0 202.5 -40t175.5 -115.5t123 -185t46 -249.5v-4q0 -137 -46 -246.5t-123 -186.5t-175.5 -117.5t-202.5 -40.5q-121 0 -210 43t-154 108v-457h-240zM369 528q0 -84 28.5 -151.5t76.5 -115.5t109.5 -74.5 t127.5 -26.5q68 0 128 24.5t105 70.5t71.5 114.5t26.5 156.5v4q0 86 -26.5 155t-72.5 117t-105.5 72.5t-126.5 24.5q-66 0 -127.5 -26.5t-109.5 -74.5t-76.5 -116t-28.5 -150v-4z" />
<glyph unicode="&#xff;" horiz-adv-x="1210" d="M6 1100h264l357 -815l313 815h258l-467 -1151q-72 -170 -164 -247t-227 -77q-72 0 -134.5 16.5t-144.5 57.5l86 203q33 -16 57.5 -27.5t45 -18t41 -8.5t43.5 -2q51 0 90 30t82 128zM293 1178v276h266v-276h-266zM653 1178v276h267v-276h-267z" />
<glyph unicode="&#x152;" horiz-adv-x="2316" d="M98 713v4q0 160 59.5 299t166 240.5t254 160t323.5 58.5h1323v-230h-838v-407h746v-230h-746v-420h848v-229h-1333q-176 0 -323.5 57.5t-254 158.5t-166 239.5t-59.5 298.5zM348 717q0 -111 39 -207t110.5 -167t174 -112t229.5 -41h242v1053h-242q-127 0 -229.5 -40 t-174 -109.5t-110.5 -166t-39 -206.5v-4z" />
<glyph unicode="&#x153;" horiz-adv-x="2148" d="M70 524v4q0 121 45 229.5t124.5 189.5t187.5 128t232 47q147 0 266 -65.5t195 -173.5q72 111 183.5 175t252.5 64q127 0 226.5 -48t167 -131t103.5 -191.5t36 -231.5q0 -10 -1 -29.5t-5 -66.5h-830q29 -131 119 -200.5t207 -69.5q100 0 174 41t158 124l157 -141 q-102 -121 -216.5 -182.5t-274.5 -61.5q-141 0 -261 63.5t-198 182.5q-76 -111 -193.5 -178.5t-271.5 -67.5q-123 0 -229.5 47.5t-185 127t-123.5 187t-45 228.5zM313 528q0 -78 27 -145.5t74 -117.5t110.5 -78.5t137.5 -28.5q76 0 138 28.5t108 78.5t72 117t26 142v4 q0 78 -27 145.5t-74 119t-110.5 80t-137.5 28.5q-76 0 -138 -28.5t-108 -79t-72 -118t-26 -143.5v-4zM1253 633h588q-20 117 -94 195.5t-197 78.5q-106 0 -188 -74.5t-109 -199.5z" />
<glyph unicode="&#x178;" horiz-adv-x="1466" d="M-23 1475h297l461 -684l465 684h289l-633 -918v-598h-246v596zM420 1513v277h266v-277h-266zM780 1513v277h267v-277h-267z" />
<glyph unicode="&#x2c6;" horiz-adv-x="1024" d="M139 1178l283 350h180l283 -350h-238l-137 122l-137 -122h-234z" />
<glyph unicode="&#x2dc;" horiz-adv-x="1024" d="M127 1198q39 150 92 217.5t152 67.5q41 0 84 -14.5t77 -30.5q16 -6 34 -13.5t34 -13.5q35 -10 45 -10t18.5 2t16.5 12t19.5 31.5t27.5 62.5l170 -47q-39 -150 -92.5 -217t-151.5 -67q-41 0 -84 14t-77 31q-16 6 -34 13t-34 13q-35 10 -45 11q-10 0 -18.5 -2.5 t-16.5 -12.5t-19.5 -32.5t-27.5 -61.5z" />
<glyph unicode="&#x2000;" horiz-adv-x="954" />
<glyph unicode="&#x2001;" horiz-adv-x="1909" />
<glyph unicode="&#x2002;" horiz-adv-x="954" />
<glyph unicode="&#x2003;" horiz-adv-x="1909" />
<glyph unicode="&#x2004;" horiz-adv-x="636" />
<glyph unicode="&#x2005;" horiz-adv-x="477" />
<glyph unicode="&#x2006;" horiz-adv-x="318" />
<glyph unicode="&#x2007;" horiz-adv-x="318" />
<glyph unicode="&#x2008;" horiz-adv-x="238" />
<glyph unicode="&#x2009;" horiz-adv-x="381" />
<glyph unicode="&#x200a;" horiz-adv-x="106" />
<glyph unicode="&#x2010;" horiz-adv-x="835" d="M92 492v247h651v-247h-651z" />
<glyph unicode="&#x2011;" horiz-adv-x="835" d="M92 492v247h651v-247h-651z" />
<glyph unicode="&#x2012;" horiz-adv-x="835" d="M92 492v247h651v-247h-651z" />
<glyph unicode="&#x2013;" horiz-adv-x="1081" d="M92 496v239h897v-239h-897z" />
<glyph unicode="&#x2014;" horiz-adv-x="1839" d="M92 496v239h1655v-239h-1655z" />
<glyph unicode="&#x2018;" horiz-adv-x="501" d="M106 938v225q0 141 68 217t225 111l50 -143q-82 -31 -112 -56.5t-34 -56.5h74v-297h-271z" />
<glyph unicode="&#x2019;" horiz-adv-x="501" d="M53 1065q80 29 111 55.5t37 57.5h-74v297h270v-226q0 -141 -68.5 -216.5t-226.5 -110.5z" />
<glyph unicode="&#x201a;" horiz-adv-x="501" d="M43 -154q80 29 110.5 55.5t36.5 57.5h-73v297h270v-225q0 -141 -68.5 -217t-226.5 -111z" />
<glyph unicode="&#x201c;" horiz-adv-x="911" d="M106 938v225q0 141 68 217t225 111l50 -143q-82 -31 -112 -56.5t-34 -56.5h74v-297h-271zM516 938v225q0 141 67.5 217t225.5 111l49 -143q-82 -31 -111.5 -56.5t-33.5 -56.5h71v-297h-268z" />
<glyph unicode="&#x201d;" horiz-adv-x="911" d="M53 1065q80 29 111 55.5t37 57.5h-74v297h270v-226q0 -141 -68.5 -216.5t-226.5 -110.5zM463 1065q80 29 110.5 55.5t36.5 57.5h-73v297h268v-226q0 -141 -67.5 -216.5t-225.5 -110.5z" />
<glyph unicode="&#x201e;" horiz-adv-x="911" d="M43 -154q80 29 110.5 55.5t36.5 57.5h-73v297h270v-225q0 -141 -68.5 -217t-226.5 -111zM453 -154q80 29 110.5 55.5t36.5 57.5h-74v297h269v-225q0 -141 -67.5 -217t-225.5 -111z" />
<glyph unicode="&#x2022;" horiz-adv-x="978" d="M180 719v4q0 63 24.5 119.5t67.5 97.5t99.5 65.5t117.5 24.5q59 0 116 -23.5t100 -65.5t68.5 -98.5t25.5 -119.5v-4q0 -63 -24.5 -119.5t-66.5 -97.5t-99 -65.5t-120 -24.5t-119.5 24.5t-98.5 65.5t-66.5 97t-24.5 120z" />
<glyph unicode="&#x2026;" horiz-adv-x="1480" d="M117 -41v293h264v-293h-264zM608 -41v293h264v-293h-264zM1100 -41v293h266v-293h-266z" />
<glyph unicode="&#x202f;" horiz-adv-x="381" />
<glyph unicode="&#x2039;" horiz-adv-x="671" d="M57 508v45l363 475l192 -108l-286 -388l284 -391l-190 -110z" />
<glyph unicode="&#x203a;" horiz-adv-x="671" d="M61 139l285 389l-285 390l189 110l362 -475v-45l-362 -477z" />
<glyph unicode="&#x205f;" horiz-adv-x="477" />
<glyph unicode="&#x2122;" horiz-adv-x="1413" d="M12 1307v168h578v-168h-203v-545h-172v545h-203zM647 762v713h160l203 -312l200 312h158v-713h-170v387l-162 -246h-57l-160 246v-387h-172z" />
<glyph unicode="&#xe000;" horiz-adv-x="1095" d="M0 0v1096h1096v-1096h-1096z" />
<glyph unicode="&#xfb01;" horiz-adv-x="1292" d="M49 879v219h146v51q0 96 25.5 172t78.5 129q49 49 113.5 71.5t142.5 22.5q59 0 105.5 -8t109.5 -31v-221q-41 12 -69.5 20.5t-50 12.5t-39.5 6t-36 2q-70 0 -106.5 -41t-36.5 -143v-45h336v-217h-334v-920h-239v920h-146zM891 1249v256h262v-256h-262zM903 -41v1141h238 v-1141h-238z" />
<glyph unicode="&#xfb02;" horiz-adv-x="1292" d="M49 879v219h146v51q0 96 25.5 172t78.5 129q49 49 113.5 71.5t142.5 22.5q59 0 105.5 -8t109.5 -31v-221q-41 12 -69.5 20.5t-50 12.5t-39.5 6t-36 2q-70 0 -106.5 -41t-36.5 -143v-45h336v-217h-334v-920h-239v920h-146zM903 -41v1577h238v-1577h-238z" />
</font>
</defs>
</svg>
